<?xml version="1.0" standalone="no"?>
<!DOCTYPE svg PUBLIC "-//W3C//DTD SVG 20010904//EN"
 "http://www.w3.org/TR/2001/REC-SVG-20010904/DTD/svg10.dtd">
<svg version="1.0" xmlns="http://www.w3.org/2000/svg"
 width="1024.000000pt" height="1024.000000pt" viewBox="0 0 1024.000000 1024.000000"
 preserveAspectRatio="xMidYMid meet">
<metadata>
Created by potrace 1.11, written by Peter Selinger 2001-2013
</metadata>
<g transform="translate(0.000000,1024.000000) scale(0.100000,-0.100000)"
fill="#000000" stroke="none">
<path d="M5728 9177 c-31 -26 -45 -58 -53 -124 -4 -27 -8 -59 -10 -73 -2 -14
-6 -61 -10 -105 -3 -44 -8 -105 -10 -135 -3 -30 -7 -91 -10 -135 -3 -44 -8
-100 -10 -125 -2 -25 -7 -79 -10 -120 -15 -167 -30 -230 -65 -269 -37 -39 -65
-40 -85 -1 -23 44 -19 128 19 410 3 19 7 55 10 80 3 25 8 65 11 90 19 143 29
402 17 445 -8 27 -13 30 -46 29 -52 -2 -81 -20 -100 -63 -21 -44 -29 -106 -41
-311 -4 -59 -10 -121 -20 -190 -2 -14 -6 -68 -10 -120 -21 -303 -28 -341 -72
-374 -32 -23 -105 -35 -99 -15 3 8 7 59 11 114 3 55 8 116 10 135 3 19 7 58
10 85 3 28 9 84 15 125 5 41 12 98 15 125 3 28 7 68 10 90 17 133 26 315 18
346 -6 23 -48 32 -88 19 -56 -19 -87 -114 -101 -315 -8 -116 -18 -219 -30
-295 -3 -24 -8 -80 -18 -220 -6 -80 -15 -137 -26 -164 -19 -50 -78 -86 -116
-72 -15 6 -16 21 -10 129 3 67 8 133 10 147 2 14 7 45 11 70 3 25 16 99 27
165 11 66 22 138 24 160 2 22 7 47 10 55 7 20 18 163 17 239 0 79 -21 96 -87
71 -45 -17 -76 -92 -90 -215 -8 -72 -15 -133 -21 -190 -3 -27 -8 -68 -12 -90
-3 -22 -7 -53 -9 -70 -1 -16 -5 -46 -9 -65 -3 -19 -7 -51 -10 -70 -2 -19 -6
-48 -9 -65 -2 -16 -7 -48 -10 -70 -6 -37 -9 -63 -22 -175 -10 -78 -11 -303 -2
-359 14 -89 44 -144 111 -207 166 -153 182 -171 201 -224 23 -65 23 -151 -3
-285 -6 -33 -14 -82 -17 -110 -3 -27 -7 -55 -9 -62 -4 -13 19 -12 107 6 44 9
87 16 129 20 9 1 20 64 25 136 2 33 6 88 8 121 11 165 60 237 246 361 47 31
104 76 128 101 41 43 105 161 116 212 8 39 17 83 21 110 10 53 36 206 41 235
2 17 6 41 9 55 6 34 15 97 20 145 3 22 7 51 10 65 2 14 7 50 10 80 4 30 8 66
10 80 4 26 11 104 20 205 8 96 8 275 0 335 -14 106 -49 135 -107 87z"/>
<path d="M8047 9164 c-2 -2 -21 -6 -43 -9 -73 -11 -81 -13 -158 -35 -151 -42
-345 -127 -480 -208 -37 -23 -72 -42 -77 -42 -5 0 -9 -4 -9 -8 0 -5 -10 -14
-23 -19 -59 -27 -243 -177 -352 -287 -155 -156 -244 -292 -269 -411 -3 -16 -9
-41 -12 -55 -8 -39 -6 -111 5 -160 6 -25 16 -72 23 -105 15 -66 15 -66 4 -115
-19 -83 -135 -223 -296 -359 -30 -25 -57 -48 -60 -51 -3 -3 -50 -41 -105 -85
-55 -44 -102 -82 -105 -85 -3 -3 -34 -29 -70 -58 -166 -136 -290 -245 -290
-256 0 -2 116 -4 259 -5 216 -2 261 0 272 13 8 8 39 47 69 87 95 125 244 301
312 370 140 142 230 184 388 184 77 -1 111 -4 205 -22 170 -31 409 83 624 297
87 87 122 128 195 230 250 349 399 754 361 981 -26 152 -102 212 -272 215 -51
0 -94 0 -96 -2z"/>
<path d="M2673 7730 c-107 -38 -58 -15 -953 -467 -250 -126 -543 -269 -650
-318 -257 -117 -458 -221 -492 -253 -16 -15 -28 -36 -28 -51 0 -31 67 -97 177
-175 90 -64 704 -514 716 -525 12 -12 -162 -268 -428 -627 -33 -45 -114 -155
-180 -245 -66 -90 -160 -218 -210 -285 -49 -66 -98 -132 -107 -145 -10 -13
-43 -58 -73 -99 -31 -41 -64 -86 -73 -99 -9 -12 -31 -42 -48 -65 -72 -96 -254
-355 -288 -408 l-36 -58 58 -54 c32 -31 69 -64 82 -76 14 -11 268 -263 565
-558 297 -295 686 -679 864 -852 178 -173 392 -383 475 -466 83 -82 172 -164
197 -182 107 -72 228 -117 449 -167 9 -1 141 -35 295 -75 154 -40 307 -79 340
-87 33 -8 67 -16 75 -19 20 -5 131 -34 150 -38 8 -2 168 -43 355 -91 187 -47
347 -88 355 -90 8 -2 78 -20 155 -40 77 -19 147 -37 155 -39 8 -2 50 -13 92
-24 l77 -20 58 82 c76 107 385 517 543 721 26 33 100 130 166 215 65 85 124
162 131 170 7 8 101 130 210 271 274 355 475 611 491 628 7 8 21 25 30 39 16
24 18 24 110 18 52 -3 98 -8 101 -11 4 -2 29 -7 57 -10 27 -4 59 -8 71 -10 28
-4 101 -16 128 -21 11 -2 72 -13 135 -24 63 -11 126 -22 140 -25 31 -5 196
-34 230 -39 39 -7 160 -25 210 -32 101 -14 162 -1 155 34 -7 38 -150 452 -190
552 -8 19 -49 130 -91 245 -41 116 -82 224 -90 242 -8 17 -14 33 -14 36 0 7
-388 1036 -400 1062 -5 11 -32 83 -60 160 -28 77 -55 149 -60 160 -5 11 -20
52 -34 90 -110 308 -208 565 -247 652 -10 24 -19 45 -19 49 0 3 -18 43 -40 90
-22 47 -40 88 -40 91 0 22 -66 104 -96 118 -46 22 -61 24 -184 30 -296 13
-362 16 -445 21 -204 11 -543 12 -595 3 -104 -20 -144 -62 -134 -144 5 -49 43
-163 79 -240 30 -66 51 -114 141 -318 42 -95 85 -192 96 -217 12 -25 32 -70
45 -100 14 -30 31 -68 38 -85 7 -16 39 -88 70 -160 32 -71 98 -222 147 -335
50 -113 144 -331 210 -485 65 -154 125 -293 133 -310 7 -16 28 -66 45 -110 17
-44 38 -93 45 -110 12 -24 77 -197 111 -290 17 -49 -18 9 -81 130 -37 72 -93
180 -125 240 -32 61 -95 182 -140 270 -45 88 -106 205 -135 260 -79 150 -172
330 -270 520 -48 94 -111 215 -140 270 -121 230 -180 344 -315 613 -78 155
-158 305 -178 332 -49 67 -117 101 -174 88 -76 -17 -141 -74 -236 -208 -26
-36 -94 -126 -152 -200 -58 -74 -154 -200 -214 -280 -60 -80 -113 -146 -117
-148 -5 -2 -9 -8 -9 -14 0 -6 -9 -20 -19 -32 -32 -34 -293 -373 -901 -1166
-333 -435 -335 -437 -333 -531 1 -65 26 -121 99 -219 26 -36 52 -70 58 -77 27
-31 44 -51 86 -103 25 -31 51 -62 58 -70 7 -8 26 -33 43 -55 16 -22 35 -47 42
-55 7 -8 71 -91 142 -185 171 -223 171 -224 262 -341 43 -56 89 -116 103 -134
14 -19 52 -68 85 -111 33 -42 69 -90 80 -105 11 -15 54 -71 95 -124 41 -54
122 -159 180 -234 58 -76 140 -183 184 -239 82 -106 87 -114 162 -212 25 -33
59 -78 77 -99 60 -73 39 -61 -45 25 -95 98 -152 163 -303 344 -112 134 -218
258 -245 286 -13 14 -128 141 -170 189 -16 18 -168 186 -185 204 -13 13 -104
112 -240 260 -55 60 -111 121 -125 136 -14 15 -54 60 -90 100 -36 40 -76 85
-90 100 -21 23 -91 102 -150 170 -37 43 -102 121 -156 185 -128 155 -198 208
-320 239 -69 17 -136 24 -399 41 -67 4 -197 14 -265 21 -30 3 -82 7 -115 9
-33 2 -96 7 -140 11 -88 7 -104 8 -250 18 -55 4 -120 9 -145 11 -84 7 -285 18
-310 17 -24 -1 -24 -1 -6 13 11 8 29 16 40 16 12 1 32 3 46 5 61 8 355 15 860
19 647 6 721 10 778 39 54 28 164 149 366 406 6 8 80 112 164 230 83 118 155
220 159 225 5 6 27 37 49 70 82 119 102 147 305 421 113 154 236 322 274 374
136 189 355 486 375 508 44 50 117 156 137 200 41 89 27 181 -33 213 -26 13
-118 16 -179 6 -58 -11 -105 -24 -240 -67 -66 -21 -190 -57 -275 -80 -207 -56
-468 -130 -615 -175 -66 -20 -149 -45 -185 -55 -36 -10 -137 -39 -225 -64 -88
-26 -171 -49 -185 -51 -14 -3 -36 -7 -50 -11 -38 -9 -112 -25 -140 -30 -14 -2
-31 -7 -38 -9 -7 -3 -11 -1 -8 4 5 7 117 53 136 56 3 1 22 9 44 18 21 9 44 17
50 17 6 0 22 6 36 13 14 7 48 21 75 31 28 10 59 22 70 27 46 20 231 89 240 89
6 0 26 8 45 19 19 10 40 19 45 20 11 1 150 54 275 103 41 17 80 31 85 32 6 2
21 8 35 14 14 6 156 60 315 121 160 60 304 115 320 122 17 7 35 13 40 15 6 1
59 21 119 43 177 66 236 110 222 165 -7 30 -79 91 -206 177 -52 35 -97 67
-100 70 -3 3 -12 9 -20 12 -8 4 -34 20 -57 35 -358 232 -746 421 -916 448 -79
12 -107 11 -154 -6z"/>
<path d="M9968 6935 c-2 -2 -48 -6 -103 -9 -107 -7 -188 -12 -300 -20 -196
-15 -274 -19 -317 -20 -27 -1 -48 -3 -48 -6 0 -3 -24 -5 -53 -6 -46 0 -194 -9
-317 -19 -25 -2 -88 -6 -140 -10 -365 -23 -436 -31 -645 -70 -175 -33 -350
-105 -515 -213 -224 -145 -385 -319 -426 -458 -16 -55 -21 -58 -99 -71 -16 -3
-37 -9 -45 -13 -8 -4 -34 -11 -57 -15 -24 -4 -43 -10 -43 -14 0 -7 61 -158 99
-246 5 -11 17 -39 26 -62 10 -24 21 -43 24 -43 3 0 20 9 36 21 88 60 186 87
198 55 13 -34 90 -11 1407 429 421 141 772 258 780 260 8 2 15 4 15 5 0 1 7 3
15 5 8 3 53 18 100 34 47 16 179 61 293 101 272 94 337 121 359 151 55 74 18
161 -89 209 -39 17 -145 34 -155 25z"/>
</g>
</svg>
